<svg width="48" height="48" viewBox="0 0 48 48" fill="none" xmlns="http://www.w3.org/2000/svg">
<circle cx="24" cy="24" r="24" fill="#35ADF4"/>
<path d="M17.0673 36V32.9705L25.2805 24.5891C27.2777 22.5919 28.2763 20.864 28.2763 19.4053C28.2763 18.2609 27.9285 17.3745 27.2328 16.7461C26.5596 16.0954 25.6957 15.77 24.641 15.77C22.6662 15.77 21.2076 16.7461 20.2651 18.6985L17 16.7798C17.7405 15.209 18.784 14.0196 20.1304 13.2118C21.4769 12.4039 22.9691 12 24.6073 12C26.6718 12 28.4446 12.6508 29.9257 13.9523C31.4067 15.2539 32.1473 17.0266 32.1473 19.2707C32.1473 21.6718 30.8121 24.23 28.1417 26.9453L22.8233 32.2637H32.5849V36H17.0673Z" fill="white"/>
</svg>
