<svg width="24" height="24" viewBox="0 0 24 24" fill="none" xmlns="http://www.w3.org/2000/svg">
<path d="M8.97079 5.00007C9.1024 4.99931 9.23286 5.02453 9.3547 5.0743C9.47654 5.12406 9.58735 5.19739 9.68079 5.29007L15.6108 11.2101C15.7935 11.4017 15.8971 11.6553 15.9008 11.9201C15.9016 12.0517 15.8763 12.1821 15.8266 12.304C15.7768 12.4258 15.7035 12.5366 15.6108 12.6301L9.68079 18.5501C9.48949 18.7139 9.24342 18.7995 8.99174 18.7898C8.74006 18.7801 8.50132 18.6757 8.32323 18.4976C8.14514 18.3195 8.0408 18.0808 8.03108 17.8291C8.02136 17.5774 8.10697 17.3314 8.27079 17.1401L13.5008 11.9201L8.29079 6.70007C8.10454 6.51271 8 6.25926 8 5.99507C8 5.73088 8.10454 5.47743 8.29079 5.29007C8.4721 5.11009 8.71541 5.00633 8.97079 5.00007Z" fill="#35ADF4"/>
</svg>
