<svg width="40" height="40" viewBox="0 0 40 40" fill="none" xmlns="http://www.w3.org/2000/svg">
<circle opacity="0.1" cx="20" cy="20" r="20" fill="#35ADF4"/>
<path d="M12.9974 31.6668C12.3557 31.6668 11.8064 31.4384 11.3495 30.9814C10.8925 30.5245 10.6641 29.9752 10.6641 29.3335V15.3335C10.6641 14.6918 10.8925 14.1425 11.3495 13.6856C11.8064 13.2286 12.3557 13.0002 12.9974 13.0002H15.3307C15.3307 11.7168 15.7877 10.6182 16.7016 9.70433C17.6155 8.79044 18.7141 8.3335 19.9974 8.3335C21.2807 8.3335 22.3793 8.79044 23.2932 9.70433C24.2071 10.6182 24.6641 11.7168 24.6641 13.0002H26.9974C27.6391 13.0002 28.1884 13.2286 28.6453 13.6856C29.1023 14.1425 29.3307 14.6918 29.3307 15.3335V29.3335C29.3307 29.9752 29.1023 30.5245 28.6453 30.9814C28.1884 31.4384 27.6391 31.6668 26.9974 31.6668H12.9974ZM17.6641 13.0002H22.3307C22.3307 12.3585 22.1023 11.8092 21.6453 11.3522C21.1884 10.8953 20.6391 10.6668 19.9974 10.6668C19.3557 10.6668 18.8064 10.8953 18.3495 11.3522C17.8925 11.8092 17.6641 12.3585 17.6641 13.0002ZM23.4974 18.8335C23.828 18.8335 24.105 18.7217 24.3286 18.4981C24.5523 18.2745 24.6641 17.9974 24.6641 17.6668V15.3335H22.3307V17.6668C22.3307 17.9974 22.4425 18.2745 22.6661 18.4981C22.8898 18.7217 23.1668 18.8335 23.4974 18.8335ZM16.4974 18.8335C16.828 18.8335 17.105 18.7217 17.3286 18.4981C17.5523 18.2745 17.6641 17.9974 17.6641 17.6668V15.3335H15.3307V17.6668C15.3307 17.9974 15.4425 18.2745 15.6661 18.4981C15.8898 18.7217 16.1668 18.8335 16.4974 18.8335Z" fill="#1FA3ED"/>
</svg>
