<svg width="40" height="40" viewBox="0 0 40 40" fill="none" xmlns="http://www.w3.org/2000/svg">
<circle opacity="0.1" cx="20" cy="20" r="20" fill="#35ADF4"/>
<path d="M28.7499 29.9167C29.0805 29.9167 29.3576 29.8049 29.5812 29.5812C29.8048 29.3576 29.9166 29.0806 29.9166 28.75C29.9166 28.4194 29.8048 28.1424 29.5812 27.9187C29.3576 27.6951 29.0805 27.5833 28.7499 27.5833C28.4194 27.5833 28.1423 27.6951 27.9187 27.9187C27.6951 28.1424 27.5833 28.4194 27.5833 28.75C27.5833 29.0806 27.6951 29.3576 27.9187 29.5812C28.1423 29.8049 28.4194 29.9167 28.7499 29.9167ZM19.9999 31.6667C17.9971 31.6667 16.1353 31.1903 14.4145 30.2375C12.6937 29.2847 11.3374 28.05 10.3458 26.5333L15.4791 21.4L18.4833 23.9667C18.7166 24.1806 18.9839 24.2778 19.2853 24.2583C19.5867 24.2389 19.8444 24.1222 20.0583 23.9083L24.6666 19.3292V20C24.6666 20.3306 24.7784 20.6076 25.002 20.8312C25.2256 21.0549 25.5027 21.1667 25.8333 21.1667C26.1638 21.1667 26.4409 21.0549 26.6645 20.8312C26.8881 20.6076 26.9999 20.3306 26.9999 20V16.5C26.9999 16.1694 26.8881 15.8924 26.6645 15.6687C26.4409 15.4451 26.1638 15.3333 25.8333 15.3333H22.3333C22.0027 15.3333 21.7256 15.4451 21.502 15.6687C21.2784 15.8924 21.1666 16.1694 21.1666 16.5C21.1666 16.8306 21.2784 17.1076 21.502 17.3312C21.7256 17.5549 22.0027 17.6667 22.3333 17.6667H23.0041L19.1833 21.4875L16.1499 18.95C15.9166 18.7556 15.6492 18.6632 15.3478 18.6729C15.0464 18.6826 14.7888 18.7944 14.5749 19.0083L9.17909 24.4042C8.90686 23.7625 8.69784 23.0382 8.552 22.2312C8.40617 21.4243 8.33325 20.6806 8.33325 20C8.33325 18.3861 8.6395 16.8694 9.252 15.45C9.8645 14.0306 10.6958 12.7958 11.7458 11.7458C12.7958 10.6958 14.0305 9.86458 15.4499 9.25208C16.8694 8.63958 18.386 8.33333 19.9999 8.33333C21.6138 8.33333 23.1305 8.63958 24.5499 9.25208C25.9694 9.86458 27.2041 10.6958 28.2541 11.7458C29.3041 12.7958 30.1353 14.0306 30.7478 15.45C31.3603 16.8694 31.6666 18.3861 31.6666 20V29.3333C31.6666 29.975 31.4381 30.5243 30.9812 30.9812C30.5242 31.4382 29.9749 31.6667 29.3333 31.6667H19.9999Z" fill="#35ADF4"/>
</svg>
