<svg xmlns="http://www.w3.org/2000/svg" width="40" height="40" viewBox="0 0 40 40">
  <circle cx="20" cy="20" r="20" fill="#35ADF4" opacity="0.1" />
    <svg xmlns="http://www.w3.org/2000/svg" height="24" viewBox="0 -960 960 960" width="24"  x="8" y="8"><path d="M162.87-111.869q-37.783 0-64.392-26.609Q71.87-165.087 71.87-202.87v-430.434q0-37.783 26.61-64.392 26.608-26.608 64.391-26.608h149.717v-80q0-37.783 26.609-64.392 26.608-26.609 64.391-26.609h152.826q37.783 0 64.391 26.609 26.609 26.609 26.609 64.392v80H797.13q37.783 0 64.392 26.608 26.609 26.609 26.609 64.392v430.434q0 37.783-26.609 64.392-26.609 26.609-64.392 26.609H162.87Zm240.717-612.435h152.826v-80H403.587v80Z" fill="#35ADF4"/></svg></svg>