<svg width="40" height="40" viewBox="0 0 40 40" fill="none" xmlns="http://www.w3.org/2000/svg">
<circle opacity="0.1" cx="20" cy="20" r="20" fill="#35ADF4"/>
<path d="M13.0001 20.0583C13.0001 20.9333 13.1654 21.784 13.4959 22.6104C13.8265 23.4368 14.3417 24.2 15.0417 24.9L15.3334 25.1917V23.5C15.3334 23.1694 15.4452 22.8924 15.6688 22.6687C15.8924 22.4451 16.1695 22.3333 16.5001 22.3333C16.8306 22.3333 17.1077 22.4451 17.3313 22.6687C17.5549 22.8924 17.6667 23.1694 17.6667 23.5V28.1667C17.6667 28.4972 17.5549 28.7743 17.3313 28.9979C17.1077 29.2215 16.8306 29.3333 16.5001 29.3333H11.8334C11.5029 29.3333 11.2258 29.2215 11.0022 28.9979C10.7786 28.7743 10.6667 28.4972 10.6667 28.1667C10.6667 27.8361 10.7786 27.559 11.0022 27.3354C11.2258 27.1118 11.5029 27 11.8334 27H13.8751L13.4084 26.5917C12.3973 25.6972 11.6876 24.6764 11.2792 23.5292C10.8709 22.3819 10.6667 21.225 10.6667 20.0583C10.6667 18.2305 11.1334 16.5729 12.0667 15.0854C13.0001 13.5979 14.2542 12.4555 15.8292 11.6583C16.1015 11.5028 16.3883 11.493 16.6897 11.6292C16.9911 11.7653 17.1904 11.9889 17.2876 12.3C17.3848 12.5917 17.3799 12.8833 17.273 13.175C17.1661 13.4667 16.9765 13.6903 16.7042 13.8458C15.5765 14.468 14.6772 15.3285 14.0063 16.4271C13.3355 17.5257 13.0001 18.7361 13.0001 20.0583ZM27.0001 19.9417C27.0001 19.0667 26.8348 18.216 26.5042 17.3896C26.1737 16.5632 25.6584 15.8 24.9584 15.1L24.6667 14.8083V16.5C24.6667 16.8305 24.5549 17.1076 24.3313 17.3312C24.1077 17.5549 23.8306 17.6667 23.5001 17.6667C23.1695 17.6667 22.8924 17.5549 22.6688 17.3312C22.4452 17.1076 22.3334 16.8305 22.3334 16.5V11.8333C22.3334 11.5028 22.4452 11.2257 22.6688 11.0021C22.8924 10.7785 23.1695 10.6667 23.5001 10.6667H28.1667C28.4973 10.6667 28.7744 10.7785 28.998 11.0021C29.2216 11.2257 29.3334 11.5028 29.3334 11.8333C29.3334 12.1639 29.2216 12.441 28.998 12.6646C28.7744 12.8882 28.4973 13 28.1667 13H26.1251L26.5917 13.4083C27.5445 14.3611 28.2397 15.3965 28.6772 16.5146C29.1147 17.6326 29.3334 18.775 29.3334 19.9417C29.3334 21.7694 28.8667 23.4271 27.9334 24.9146C27.0001 26.4021 25.7459 27.5444 24.1709 28.3417C23.8987 28.4972 23.6119 28.5069 23.3105 28.3708C23.0091 28.2347 22.8098 28.0111 22.7126 27.7C22.6154 27.4083 22.6202 27.1167 22.7272 26.825C22.8341 26.5333 23.0237 26.3097 23.2959 26.1542C24.4237 25.5319 25.323 24.6715 25.9938 23.5729C26.6647 22.4743 27.0001 21.2639 27.0001 19.9417Z" fill="#35ADF4"/>
</svg>
