<svg width="40" height="40" viewBox="0 0 40 40" fill="none" xmlns="http://www.w3.org/2000/svg">
<circle opacity="0.1" cx="20" cy="20" r="20" fill="#35ADF4"/>
<path d="M8.33398 12.9999V10.6666C8.33398 10.0249 8.56246 9.47561 9.0194 9.01867C9.47635 8.56172 10.0257 8.33325 10.6673 8.33325H13.0007C13.3312 8.33325 13.6083 8.44506 13.8319 8.66867C14.0555 8.89228 14.1673 9.16936 14.1673 9.49992C14.1673 9.83047 14.0555 10.1076 13.8319 10.3312C13.6083 10.5548 13.3312 10.6666 13.0007 10.6666H10.6673V12.9999C10.6673 13.3305 10.5555 13.6076 10.3319 13.8312C10.1083 14.0548 9.83121 14.1666 9.50065 14.1666C9.1701 14.1666 8.89301 14.0548 8.6694 13.8312C8.44579 13.6076 8.33398 13.3305 8.33398 12.9999ZM10.6673 31.6666C10.0257 31.6666 9.47635 31.4381 9.0194 30.9812C8.56246 30.5242 8.33398 29.9749 8.33398 29.3333V26.9999C8.33398 26.6694 8.44579 26.3923 8.6694 26.1687C8.89301 25.9451 9.1701 25.8333 9.50065 25.8333C9.83121 25.8333 10.1083 25.9451 10.3319 26.1687C10.5555 26.3923 10.6673 26.6694 10.6673 26.9999V29.3333H13.0007C13.3312 29.3333 13.6083 29.4451 13.8319 29.6687C14.0555 29.8923 14.1673 30.1694 14.1673 30.4999C14.1673 30.8305 14.0555 31.1076 13.8319 31.3312C13.6083 31.5548 13.3312 31.6666 13.0007 31.6666H10.6673ZM29.334 31.6666H27.0007C26.6701 31.6666 26.393 31.5548 26.1694 31.3312C25.9458 31.1076 25.834 30.8305 25.834 30.4999C25.834 30.1694 25.9458 29.8923 26.1694 29.6687C26.393 29.4451 26.6701 29.3333 27.0007 29.3333H29.334V26.9999C29.334 26.6694 29.4458 26.3923 29.6694 26.1687C29.893 25.9451 30.1701 25.8333 30.5007 25.8333C30.8312 25.8333 31.1083 25.9451 31.3319 26.1687C31.5555 26.3923 31.6673 26.6694 31.6673 26.9999V29.3333C31.6673 29.9749 31.4388 30.5242 30.9819 30.9812C30.525 31.4381 29.9757 31.6666 29.334 31.6666ZM29.334 12.9999V10.6666H27.0007C26.6701 10.6666 26.393 10.5548 26.1694 10.3312C25.9458 10.1076 25.834 9.83047 25.834 9.49992C25.834 9.16936 25.9458 8.89228 26.1694 8.66867C26.393 8.44506 26.6701 8.33325 27.0007 8.33325H29.334C29.9757 8.33325 30.525 8.56172 30.9819 9.01867C31.4388 9.47561 31.6673 10.0249 31.6673 10.6666V12.9999C31.6673 13.3305 31.5555 13.6076 31.3319 13.8312C31.1083 14.0548 30.8312 14.1666 30.5007 14.1666C30.1701 14.1666 29.893 14.0548 29.6694 13.8312C29.4458 13.6076 29.334 13.3305 29.334 12.9999ZM21.7507 17.0833C21.109 17.0833 20.5597 16.8548 20.1027 16.3978C19.6458 15.9409 19.4173 15.3916 19.4173 14.7499C19.4173 14.1083 19.6458 13.5589 20.1027 13.102C20.5597 12.6451 21.109 12.4166 21.7507 12.4166C22.3923 12.4166 22.9416 12.6451 23.3986 13.102C23.8555 13.5589 24.084 14.1083 24.084 14.7499C24.084 15.3916 23.8555 15.9409 23.3986 16.3978C22.9416 16.8548 22.3923 17.0833 21.7507 17.0833ZM20.934 26.9999H16.2673L17.434 21.0499L15.334 21.8666V24.6666C15.334 24.9971 15.2222 25.2742 14.9986 25.4978C14.775 25.7214 14.4979 25.8333 14.1673 25.8333C13.8368 25.8333 13.5597 25.7214 13.3361 25.4978C13.1125 25.2742 13.0007 24.9971 13.0007 24.6666V21.1083C13.0007 20.8749 13.0638 20.6659 13.1902 20.4812C13.3166 20.2964 13.4868 20.1555 13.7007 20.0583L17.609 18.3666C18.2895 18.0749 18.7902 17.8853 19.1111 17.7978C19.4319 17.7103 19.7284 17.6666 20.0007 17.6666C20.409 17.6666 20.7882 17.7735 21.1382 17.9874C21.4882 18.2013 21.7701 18.4833 21.984 18.8333L23.1507 20.6999C23.559 21.361 24.0888 21.9346 24.7402 22.4208C25.3916 22.9069 26.1451 23.2277 27.0007 23.3833C27.3312 23.4416 27.6083 23.5874 27.8319 23.8208C28.0555 24.0541 28.1673 24.336 28.1673 24.6666C28.1673 24.9971 28.0555 25.2694 27.8319 25.4833C27.6083 25.6971 27.3409 25.7846 27.0298 25.7458C25.9798 25.5902 24.9979 25.2645 24.084 24.7687C23.1701 24.2728 22.3923 23.6555 21.7507 22.9166L20.934 26.9999Z" fill="#1FA3ED"/>
</svg>
