<svg width="40" height="40" viewBox="0 0 40 40" fill="none" xmlns="http://www.w3.org/2000/svg">
<circle opacity="0.1" cx="20" cy="20" r="20" fill="#35ADF4"/>
<path d="M9.79182 17.2584C9.65571 17.1612 9.57307 17.0396 9.54391 16.8938C9.51474 16.748 9.55849 16.5973 9.67516 16.4417C10.8807 14.7889 12.3925 13.5056 14.2106 12.5917C16.0286 11.6778 17.9682 11.2209 20.0293 11.2209C22.0904 11.2209 24.0349 11.6632 25.8627 12.548C27.6904 13.4327 29.2168 14.7112 30.4418 16.3834C30.5585 16.5584 30.5974 16.7139 30.5585 16.85C30.5196 16.9862 30.4418 17.1028 30.3252 17.2C30.2085 17.2973 30.0724 17.341 29.9168 17.3313C29.7613 17.3216 29.6252 17.2389 29.5085 17.0834C28.439 15.5667 27.0634 14.4049 25.3814 13.598C23.6995 12.791 21.9154 12.3875 20.0293 12.3875C18.1432 12.3875 16.3738 12.791 14.721 13.598C13.0682 14.4049 11.6974 15.5667 10.6085 17.0834C10.4918 17.2584 10.3557 17.3556 10.2002 17.375C10.0446 17.3945 9.90849 17.3556 9.79182 17.2584ZM23.3252 31.6375C21.3029 31.132 19.6502 30.1257 18.3668 28.6188C17.0835 27.1119 16.4418 25.2695 16.4418 23.0917C16.4418 22.1195 16.7918 21.3028 17.4918 20.6417C18.1918 19.9806 19.0377 19.65 20.0293 19.65C21.021 19.65 21.8668 19.9806 22.5668 20.6417C23.2668 21.3028 23.6168 22.1195 23.6168 23.0917C23.6168 23.7334 23.8599 24.273 24.346 24.7105C24.8321 25.148 25.4057 25.3667 26.0668 25.3667C26.7279 25.3667 27.2918 25.148 27.7585 24.7105C28.2252 24.273 28.4585 23.7334 28.4585 23.0917C28.4585 20.8362 27.6321 18.9403 25.9793 17.4042C24.3265 15.8681 22.3529 15.1 20.0585 15.1C17.764 15.1 15.7904 15.8681 14.1377 17.4042C12.4849 18.9403 11.6585 20.8264 11.6585 23.0625C11.6585 23.5292 11.7022 24.1125 11.7897 24.8125C11.8772 25.5125 12.0863 26.3292 12.4168 27.2625C12.4752 27.4375 12.4703 27.5931 12.4022 27.7292C12.3342 27.8653 12.2224 27.9625 12.0668 28.0209C11.9113 28.0792 11.7606 28.0744 11.6147 28.0063C11.4689 27.9382 11.3668 27.8264 11.3085 27.6709C11.0168 26.9125 10.8078 26.1591 10.6814 25.4105C10.555 24.6619 10.4918 23.8889 10.4918 23.0917C10.4918 20.5056 11.43 18.3375 13.3064 16.5875C15.1828 14.8375 17.4238 13.9625 20.0293 13.9625C22.6543 13.9625 24.9099 14.8375 26.796 16.5875C28.6821 18.3375 29.6252 20.5056 29.6252 23.0917C29.6252 24.0639 29.28 24.8757 28.5897 25.5271C27.8995 26.1785 27.0585 26.5042 26.0668 26.5042C25.0752 26.5042 24.2245 26.1785 23.5147 25.5271C22.805 24.8757 22.4502 24.0639 22.4502 23.0917C22.4502 22.45 22.212 21.9105 21.7356 21.473C21.2592 21.0355 20.6904 20.8167 20.0293 20.8167C19.3682 20.8167 18.7995 21.0355 18.3231 21.473C17.8467 21.9105 17.6085 22.45 17.6085 23.0917C17.6085 24.9778 18.1675 26.5528 19.2856 27.8167C20.4036 29.0806 21.8474 29.9653 23.6168 30.4709C23.7918 30.5292 23.9085 30.6264 23.9668 30.7625C24.0252 30.8987 24.0349 31.0445 23.996 31.2C23.9571 31.3362 23.8793 31.4528 23.7627 31.55C23.646 31.6473 23.5002 31.6764 23.3252 31.6375ZM13.5835 11.1625C13.4279 11.2598 13.2724 11.2841 13.1168 11.2355C12.9613 11.1869 12.8446 11.0848 12.7668 10.9292C12.689 10.7737 12.6696 10.6327 12.7085 10.5063C12.7474 10.3799 12.8446 10.2681 13.0002 10.1709C14.089 9.58755 15.2265 9.14033 16.4127 8.82922C17.5988 8.5181 18.8043 8.36255 20.0293 8.36255C21.2738 8.36255 22.489 8.51324 23.6752 8.81463C24.8613 9.11602 26.0085 9.54866 27.1168 10.1125C27.2918 10.2098 27.3939 10.3264 27.4231 10.4625C27.4522 10.5987 27.4377 10.7348 27.3793 10.8709C27.321 11.007 27.2238 11.1139 27.0877 11.1917C26.9515 11.2695 26.7863 11.2598 26.5918 11.1625C25.5613 10.6375 24.4967 10.2341 23.3981 9.95213C22.2995 9.67019 21.1765 9.52922 20.0293 9.52922C18.9015 9.52922 17.7932 9.66047 16.7043 9.92297C15.6154 10.1855 14.5752 10.5987 13.5835 11.1625ZM17.0252 31.2292C15.8779 30.0237 14.9981 28.7938 14.3856 27.5396C13.7731 26.2855 13.4668 24.8028 13.4668 23.0917C13.4668 21.3223 14.1085 19.8299 15.3918 18.6146C16.6752 17.3994 18.221 16.7917 20.0293 16.7917C21.8377 16.7917 23.3932 17.3994 24.696 18.6146C25.9988 19.8299 26.6502 21.3223 26.6502 23.0917C26.6502 23.2667 26.5967 23.4077 26.4897 23.5146C26.3828 23.6216 26.2418 23.675 26.0668 23.675C25.9113 23.675 25.7752 23.6216 25.6585 23.5146C25.5418 23.4077 25.4835 23.2667 25.4835 23.0917C25.4835 21.6334 24.9439 20.4132 23.8647 19.4313C22.7856 18.4494 21.5071 17.9584 20.0293 17.9584C18.5515 17.9584 17.2828 18.4494 16.2231 19.4313C15.1634 20.4132 14.6335 21.6334 14.6335 23.0917C14.6335 24.6667 14.9057 26.0035 15.4502 27.1021C15.9946 28.2007 16.7918 29.3042 17.8418 30.4125C17.9585 30.5292 18.0168 30.6653 18.0168 30.8209C18.0168 30.9764 17.9585 31.1125 17.8418 31.2292C17.7252 31.3459 17.589 31.4042 17.4335 31.4042C17.2779 31.4042 17.1418 31.3459 17.0252 31.2292ZM25.8335 29.2459C24.1029 29.2459 22.6009 28.6625 21.3272 27.4959C20.0536 26.3292 19.4168 24.8612 19.4168 23.0917C19.4168 22.9362 19.4703 22.8 19.5772 22.6834C19.6842 22.5667 19.8252 22.5084 20.0002 22.5084C20.1752 22.5084 20.3161 22.5667 20.4231 22.6834C20.53 22.8 20.5835 22.9362 20.5835 23.0917C20.5835 24.55 21.1085 25.7459 22.1585 26.6792C23.2085 27.6125 24.4335 28.0792 25.8335 28.0792C25.9502 28.0792 26.1154 28.0695 26.3293 28.05C26.5432 28.0306 26.7668 28.0014 27.0002 27.9625C27.1752 27.9237 27.3258 27.948 27.4522 28.0355C27.5786 28.123 27.6613 28.2542 27.7002 28.4292C27.739 28.5848 27.7099 28.7209 27.6127 28.8375C27.5154 28.9542 27.389 29.032 27.2335 29.0709C26.8835 29.1681 26.5772 29.2216 26.3147 29.2313C26.0522 29.241 25.8918 29.2459 25.8335 29.2459Z" fill="#1FA3ED"/>
</svg>
