<svg width="60" height="60" viewBox="0 0 60 60" fill="none" xmlns="http://www.w3.org/2000/svg">
<path d="M5 47.5V20.875C5 19.8333 5.28125 18.8958 5.84375 18.0625C6.40625 17.2292 7.16667 16.625 8.125 16.25L28.125 8.25C28.7083 8 29.3333 7.875 30 7.875C30.6667 7.875 31.2917 8 31.875 8.25L51.875 16.25C52.8333 16.625 53.5938 17.2292 54.1562 18.0625C54.7188 18.8958 55 19.8333 55 20.875V47.5C55 48.875 54.5104 50.0521 53.5312 51.0312C52.5521 52.0104 51.375 52.5 50 52.5H40V32.5H20V52.5H10C8.625 52.5 7.44792 52.0104 6.46875 51.0312C5.48958 50.0521 5 48.875 5 47.5ZM22.5 52.5V47.5H27.5V52.5H22.5ZM27.5 45V40H32.5V45H27.5ZM32.5 52.5V47.5H37.5V52.5H32.5Z" fill="#1FA3ED"/>
</svg>
