<svg xmlns="http://www.w3.org/2000/svg" width="24" height="24" viewBox="0 0 24 24" fill="none">
  <path d="M17.0085 20.9951L7.0085 21.0046C4.8085 21.0066 3.007 19.2086 3.0045 17.0086L2.995 7.00862C2.993 4.80862 4.791 3.00712 6.991 3.00462L16.991 2.99512C19.191 2.99312 20.9925 4.79112 20.995 6.99112L21.0045 16.9911C21.007 19.1916 19.2085 20.9931 17.0085 20.9951Z" fill="white"/>
  <path d="M12 15.5C10.0705 15.5 8.5 13.93 8.5 12C8.5 10.07 10.0705 8.5 12 8.5C13.9295 8.5 15.5 10.07 15.5 12C15.5 13.93 13.9295 15.5 12 15.5ZM12 9.5C10.6215 9.5 9.5 10.6215 9.5 12C9.5 13.3785 10.6215 14.5 12 14.5C13.3785 14.5 14.5 13.3785 14.5 12C14.5 10.6215 13.3785 9.5 12 9.5Z" fill="black"/>
  <path d="M15.75 9C16.1642 9 16.5 8.66421 16.5 8.25C16.5 7.83579 16.1642 7.5 15.75 7.5C15.3358 7.5 15 7.83579 15 8.25C15 8.66421 15.3358 9 15.75 9Z" fill="black"/>
  <path d="M15 18.5H9C7.0705 18.5 5.5 16.93 5.5 15V9C5.5 7.07 7.0705 5.5 9 5.5H15C16.9295 5.5 18.5 7.07 18.5 9V15C18.5 16.93 16.9295 18.5 15 18.5ZM9 6.5C7.6215 6.5 6.5 7.6215 6.5 9V15C6.5 16.3785 7.6215 17.5 9 17.5H15C16.3785 17.5 17.5 16.3785 17.5 15V9C17.5 7.6215 16.3785 6.5 15 6.5H9Z" fill="black"/>
</svg>