<svg width="40" height="40" viewBox="0 0 40 40" fill="none" xmlns="http://www.w3.org/2000/svg">
<circle opacity="0.1" cx="20" cy="20" r="20" fill="#35ADF4"/>
<path d="M12.4749 18.25C12.2416 18.1528 12.0228 18.0507 11.8187 17.9437C11.6145 17.8368 11.4055 17.7056 11.1916 17.55L10.3457 17.8125C10.093 17.8903 9.84505 17.8806 9.60199 17.7833C9.35894 17.6861 9.16935 17.5306 9.03324 17.3167L8.79991 16.9083C8.6638 16.675 8.61519 16.4222 8.65408 16.15C8.69297 15.8778 8.81935 15.6542 9.03324 15.4792L9.67491 14.925C9.63602 14.6722 9.61658 14.4194 9.61658 14.1667C9.61658 13.9139 9.63602 13.6611 9.67491 13.4083L9.03324 12.8542C8.81935 12.6792 8.69297 12.4604 8.65408 12.1979C8.61519 11.9354 8.6638 11.6875 8.79991 11.4542L9.06241 11.0167C9.19852 10.8028 9.38324 10.6472 9.61658 10.55C9.84991 10.4528 10.093 10.4431 10.3457 10.5208L11.1916 10.7833C11.4055 10.6278 11.6145 10.4965 11.8187 10.3896C12.0228 10.2826 12.2416 10.1806 12.4749 10.0833L12.6499 9.23749C12.7082 8.96527 12.8395 8.74652 13.0437 8.58124C13.2478 8.41597 13.486 8.33333 13.7582 8.33333H14.2249C14.4971 8.33333 14.7353 8.42083 14.9395 8.59583C15.1437 8.77083 15.2749 8.99444 15.3332 9.26666L15.5082 10.0833C15.7416 10.1806 15.9603 10.2826 16.1645 10.3896C16.3687 10.4965 16.5777 10.6278 16.7916 10.7833L17.6374 10.5208C17.8902 10.4431 18.1381 10.4528 18.3812 10.55C18.6242 10.6472 18.8138 10.8028 18.9499 11.0167L19.1832 11.425C19.3194 11.6583 19.368 11.9111 19.3291 12.1833C19.2902 12.4556 19.1638 12.6792 18.9499 12.8542L18.3082 13.4083C18.3471 13.6611 18.3666 13.9139 18.3666 14.1667C18.3666 14.4194 18.3471 14.6722 18.3082 14.925L18.9499 15.4792C19.1638 15.6542 19.2902 15.8729 19.3291 16.1354C19.368 16.3979 19.3194 16.6458 19.1832 16.8792L18.9207 17.3167C18.7846 17.5306 18.5999 17.6861 18.3666 17.7833C18.1332 17.8806 17.8902 17.8903 17.6374 17.8125L16.7916 17.55C16.5777 17.7056 16.3687 17.8368 16.1645 17.9437C15.9603 18.0507 15.7416 18.1528 15.5082 18.25L15.3332 19.0958C15.2749 19.3681 15.1437 19.5868 14.9395 19.7521C14.7353 19.9174 14.4971 20 14.2249 20H13.7582C13.486 20 13.2478 19.9125 13.0437 19.7375C12.8395 19.5625 12.7082 19.3389 12.6499 19.0667L12.4749 18.25ZM13.9916 16.5C14.6332 16.5 15.1825 16.2715 15.6395 15.8146C16.0964 15.3576 16.3249 14.8083 16.3249 14.1667C16.3249 13.525 16.0964 12.9757 15.6395 12.5187C15.1825 12.0618 14.6332 11.8333 13.9916 11.8333C13.3499 11.8333 12.8006 12.0618 12.3437 12.5187C11.8867 12.9757 11.6582 13.525 11.6582 14.1667C11.6582 14.8083 11.8867 15.3576 12.3437 15.8146C12.8006 16.2715 13.3499 16.5 13.9916 16.5ZM22.7416 30.3833C22.411 30.2667 22.1048 30.1257 21.8228 29.9604C21.5409 29.7951 21.2638 29.6056 20.9916 29.3917L19.8832 29.7417C19.5332 29.8583 19.1832 29.8535 18.8332 29.7271C18.4832 29.6007 18.211 29.3722 18.0166 29.0417L17.6957 28.4875C17.5013 28.1569 17.4332 27.8021 17.4916 27.4229C17.5499 27.0437 17.7249 26.7278 18.0166 26.475L18.8916 25.7167C18.8527 25.3667 18.8332 25.0167 18.8332 24.6667C18.8332 24.3167 18.8527 23.9667 18.8916 23.6167L18.0166 22.8292C17.7249 22.5764 17.5499 22.2653 17.4916 21.8958C17.4332 21.5264 17.5013 21.1764 17.6957 20.8458L18.0166 20.2917C18.211 19.9611 18.4832 19.7326 18.8332 19.6062C19.1832 19.4799 19.5332 19.475 19.8832 19.5917L20.9916 19.9417C21.2638 19.7278 21.5409 19.5382 21.8228 19.3729C22.1048 19.2076 22.411 19.0667 22.7416 18.95L23.0041 17.7542C23.0819 17.3847 23.2617 17.0833 23.5437 16.85C23.8256 16.6167 24.161 16.5 24.5499 16.5H25.2499C25.6388 16.5 25.9742 16.6167 26.2562 16.85C26.5381 17.0833 26.718 17.3847 26.7957 17.7542L27.0582 18.95C27.3888 19.0667 27.695 19.2076 27.977 19.3729C28.2589 19.5382 28.536 19.7278 28.8082 19.9417L29.9166 19.5917C30.2666 19.475 30.6166 19.4799 30.9666 19.6062C31.3166 19.7326 31.5888 19.9611 31.7832 20.2917L32.1041 20.8458C32.2985 21.1764 32.3666 21.5312 32.3082 21.9104C32.2499 22.2896 32.0749 22.6056 31.7832 22.8583L30.9082 23.6167C30.9471 23.9667 30.9666 24.3167 30.9666 24.6667C30.9666 25.0167 30.9471 25.3667 30.9082 25.7167L31.7832 26.5042C32.0749 26.7569 32.2499 27.0681 32.3082 27.4375C32.3666 27.8069 32.2985 28.1569 32.1041 28.4875L31.7832 29.0417C31.5888 29.3722 31.3166 29.6007 30.9666 29.7271C30.6166 29.8535 30.2666 29.8583 29.9166 29.7417L28.8082 29.3917C28.536 29.6056 28.2589 29.7951 27.977 29.9604C27.695 30.1257 27.3888 30.2667 27.0582 30.3833L26.7957 31.5792C26.718 31.9486 26.5381 32.25 26.2562 32.4833C25.9742 32.7167 25.6388 32.8333 25.2499 32.8333H24.5499C24.161 32.8333 23.8256 32.7167 23.5437 32.4833C23.2617 32.25 23.0819 31.9486 23.0041 31.5792L22.7416 30.3833ZM24.8999 28.1667C25.8721 28.1667 26.6985 27.8264 27.3791 27.1458C28.0596 26.4653 28.3999 25.6389 28.3999 24.6667C28.3999 23.6944 28.0596 22.8681 27.3791 22.1875C26.6985 21.5069 25.8721 21.1667 24.8999 21.1667C23.9277 21.1667 23.1013 21.5069 22.4207 22.1875C21.7402 22.8681 21.3999 23.6944 21.3999 24.6667C21.3999 25.6389 21.7402 26.4653 22.4207 27.1458C23.1013 27.8264 23.9277 28.1667 24.8999 28.1667Z" fill="#35ADF4"/>
</svg>
