<svg width="40" height="40" viewBox="0 0 40 40" fill="none" xmlns="http://www.w3.org/2000/svg">
<circle opacity="0.1" cx="20" cy="20" r="20" fill="#35ADF4"/>
<path d="M22.3333 16.5C22.0028 16.5 21.7257 16.3882 21.5021 16.1646C21.2785 15.941 21.1667 15.6639 21.1667 15.3333V10.6667C21.1667 10.3361 21.2785 10.059 21.5021 9.83542C21.7257 9.61181 22.0028 9.5 22.3333 9.5H29.3333C29.6639 9.5 29.941 9.61181 30.1646 9.83542C30.3882 10.059 30.5 10.3361 30.5 10.6667V15.3333C30.5 15.6639 30.3882 15.941 30.1646 16.1646C29.941 16.3882 29.6639 16.5 29.3333 16.5H22.3333ZM10.6667 21.1667C10.3361 21.1667 10.059 21.0549 9.83542 20.8313C9.61181 20.6076 9.5 20.3306 9.5 20V10.6667C9.5 10.3361 9.61181 10.059 9.83542 9.83542C10.059 9.61181 10.3361 9.5 10.6667 9.5H17.6667C17.9972 9.5 18.2743 9.61181 18.4979 9.83542C18.7215 10.059 18.8333 10.3361 18.8333 10.6667V20C18.8333 20.3306 18.7215 20.6076 18.4979 20.8313C18.2743 21.0549 17.9972 21.1667 17.6667 21.1667H10.6667ZM22.3333 30.5C22.0028 30.5 21.7257 30.3882 21.5021 30.1646C21.2785 29.941 21.1667 29.6639 21.1667 29.3333V20C21.1667 19.6694 21.2785 19.3924 21.5021 19.1687C21.7257 18.9451 22.0028 18.8333 22.3333 18.8333H29.3333C29.6639 18.8333 29.941 18.9451 30.1646 19.1687C30.3882 19.3924 30.5 19.6694 30.5 20V29.3333C30.5 29.6639 30.3882 29.941 30.1646 30.1646C29.941 30.3882 29.6639 30.5 29.3333 30.5H22.3333ZM10.6667 30.5C10.3361 30.5 10.059 30.3882 9.83542 30.1646C9.61181 29.941 9.5 29.6639 9.5 29.3333V24.6667C9.5 24.3361 9.61181 24.059 9.83542 23.8354C10.059 23.6118 10.3361 23.5 10.6667 23.5H17.6667C17.9972 23.5 18.2743 23.6118 18.4979 23.8354C18.7215 24.059 18.8333 24.3361 18.8333 24.6667V29.3333C18.8333 29.6639 18.7215 29.941 18.4979 30.1646C18.2743 30.3882 17.9972 30.5 17.6667 30.5H10.6667Z" fill="#35ADF4"/>
</svg>
