<svg xmlns="http://www.w3.org/2000/svg" width="60" height="60" viewBox="0 0 60 60" fill="none">
  <path d="M27.375 31.75L23.75 28.1875C23.2917 27.7292 22.7188 27.5 22.0313 27.5C21.3438 27.5 20.75 27.75 20.25 28.25C19.7917 28.7083 19.5625 29.2917 19.5625 30C19.5625 30.7083 19.7917 31.2917 20.25 31.75L25.625 37.125C26.125 37.625 26.7083 37.875 27.375 37.875C28.0417 37.875 28.625 37.625 29.125 37.125L39.75 26.5C40.25 26 40.4896 25.4167 40.4688 24.75C40.4479 24.0833 40.2083 23.5 39.75 23C39.25 22.5 38.6563 22.2396 37.9688 22.2187C37.2813 22.1979 36.6875 22.4375 36.1875 22.9375L27.375 31.75ZM20.375 54.375L16.75 48.25L9.875 46.75C9.25 46.625 8.75 46.3021 8.375 45.7812C8 45.2604 7.85417 44.6875 7.9375 44.0625L8.625 37L3.9375 31.625C3.52083 31.1667 3.3125 30.625 3.3125 30C3.3125 29.375 3.52083 28.8333 3.9375 28.375L8.625 23L7.9375 15.9375C7.85417 15.3125 8 14.7396 8.375 14.2187C8.75 13.6979 9.25 13.375 9.875 13.25L16.75 11.75L20.375 5.62499C20.7083 5.08332 21.1667 4.71874 21.75 4.53124C22.3333 4.34374 22.9167 4.37499 23.5 4.62499L30 7.37499L36.5 4.62499C37.0833 4.37499 37.6667 4.34374 38.25 4.53124C38.8333 4.71874 39.2917 5.08332 39.625 5.62499L43.25 11.75L50.125 13.25C50.75 13.375 51.25 13.6979 51.625 14.2187C52 14.7396 52.1458 15.3125 52.0625 15.9375L51.375 23L56.0625 28.375C56.4792 28.8333 56.6875 29.375 56.6875 30C56.6875 30.625 56.4792 31.1667 56.0625 31.625L51.375 37L52.0625 44.0625C52.1458 44.6875 52 45.2604 51.625 45.7812C51.25 46.3021 50.75 46.625 50.125 46.75L43.25 48.25L39.625 54.375C39.2917 54.9167 38.8333 55.2812 38.25 55.4687C37.6667 55.6562 37.0833 55.625 36.5 55.375L30 52.625L23.5 55.375C22.9167 55.625 22.3333 55.6562 21.75 55.4687C21.1667 55.2812 20.7083 54.9167 20.375 54.375Z" fill="#35ADF4"/>
</svg>