<svg width="463" height="405" viewBox="0 0 463 405" fill="none" xmlns="http://www.w3.org/2000/svg">
<path d="M462.818 322.972C462.818 322.604 462.817 322.237 462.695 321.87C447.881 183.768 326.063 200.052 239.872 88.7622C153.681 -22.6495 75.0802 27.9143 75.0802 27.9143C-16.9876 94.7613 46.9212 172.015 45.3296 209.111C43.8604 246.208 -3.64263 292.242 17.1705 370.964C17.1705 371.087 17.293 371.209 17.293 371.332C22.4351 390.553 39.5753 404.143 59.2866 405H235.464H384.829C429.516 405 465.266 367.536 462.818 322.972Z" fill="#11171F"/>
<path d="M325.573 387.003C319.574 388.717 301.822 378.555 297.536 378.433C293.007 380.881 292.517 392.512 291.782 396.185C291.048 399.858 330.103 393.737 327.409 398.266C324.594 402.796 299.006 398.756 296.679 399.491C295.455 399.858 295.333 402.184 296.19 404.755H341.489C344.672 401.939 346.998 399.124 348.345 397.042C346.754 399.736 345.407 402.307 344.427 404.755H353.977C354.589 403.286 355.446 402.307 356.181 401.817C356.793 401.45 357.772 402.796 359.119 404.755H401.602C404.418 401.939 406.01 399.736 405.887 398.879C405.52 396.675 383.238 399.368 379.075 396.185C375.035 393.124 375.157 390.553 380.422 388.717C385.686 386.88 404.051 395.451 409.805 391.166C415.559 386.88 420.457 376.719 419.967 373.536C419.355 370.352 407.357 379.29 396.093 381.126C384.829 382.84 377.116 380.636 378.83 376.719C380.544 372.801 406.377 373.903 413.968 369.128C421.559 364.353 422.66 350.274 421.314 348.192C420.089 346.111 391.808 364.965 385.564 363.864C379.32 362.884 382.871 358.477 390.094 357.497C397.317 356.518 415.559 348.927 417.151 343.662C418.743 338.398 416.172 326.89 413.968 327.257C411.764 327.624 406.989 336.929 401.97 341.826C396.95 346.723 390.584 349.662 389.482 343.295C388.38 336.929 407.724 331.787 410.662 328.604C413.601 325.42 410.05 312.443 408.336 310.239C406.622 308.158 380.667 302.159 376.014 304.974C370.872 312.075 370.015 333.133 372.219 336.684C374.423 340.234 373.198 347.703 367.689 343.05C362.547 337.051 369.158 309.994 369.036 308.647C368.913 307.301 363.771 307.056 358.629 310.606C353.487 314.157 354.956 334.113 357.527 340.357C359.976 346.601 362.547 361.905 352.385 353.457C342.101 345.009 348.223 318.564 344.795 316.483C341.367 314.402 334.021 321.87 331.205 324.686C328.389 327.502 328.879 334.97 332.184 341.459C335.49 347.825 350.916 362.272 343.448 364.476C335.98 366.679 325.94 332.644 323.124 331.542C320.309 330.44 313.697 334.97 310.881 343.05C308.31 350.763 336.224 368.883 332.429 374.025C321.166 375.739 312.351 351.62 307.821 350.519C303.291 349.539 299.128 358.109 296.924 363.741C294.721 369.373 297.659 372.189 305.494 377.453C313.452 382.963 329.858 383.208 325.573 387.003ZM358.752 371.209C357.895 376.841 352.263 371.944 352.263 371.944C352.753 365.822 359.609 365.578 358.752 371.209ZM343.203 376.596C349.447 372.679 349.937 382.228 346.019 387.982C341.979 393.737 336.592 389.819 336.592 389.819C332.429 386.268 336.959 380.514 343.203 376.596Z" fill="#2A2A2A"/>
<path d="M44.8394 345.376C49.859 342.438 60.388 344.519 53.5319 351.865C44.9618 358.844 7.37565 348.315 5.53919 348.437C3.70273 348.56 2.96815 355.783 7.86537 363.129C12.6402 370.475 40.5543 369.25 49.2469 365.945C58.0619 362.762 79.6096 359.823 67.3666 373.78C55.1235 387.737 18.5168 378.188 15.4561 382.84C12.3953 387.493 22.4346 398.144 26.3524 402.184C27.6991 403.653 29.9029 404.51 32.5963 404.878H38.3506C42.0235 404.51 45.9412 403.408 49.7366 401.572C58.7964 397.165 79.6096 376.351 82.3031 386.88C83.8947 392.879 68.8357 399.613 55.4908 404.878H87.4452C90.8732 402.429 93.6891 401.205 95.4032 402.551C95.5256 403.409 95.5256 404.143 95.4032 404.878H146.457C141.682 392.757 132.989 385.044 127.97 381.371C157.475 400.225 170.943 387.737 175.105 380.514C179.513 373.046 175.84 354.436 171.555 352.11C167.27 349.784 166.658 363.741 156.129 371.332C145.6 378.922 136.54 373.535 134.948 370.72C133.234 367.781 160.046 358.966 158.21 340.112C156.374 321.258 136.05 300.689 132.989 301.057C129.806 301.424 132.622 332.766 128.092 338.275C123.562 343.785 120.012 343.54 117.686 336.194C115.359 328.848 128.092 303.505 122.215 295.18C116.461 286.977 102.382 279.631 97.9742 280.243C93.5667 280.856 105.565 298.118 107.524 313.912C109.483 329.705 106.055 340.479 100.668 337.786C95.2807 335.092 97.9742 299.22 91.6078 288.324C85.2414 277.55 65.6525 275.469 62.7142 277.06C59.7759 278.774 84.7517 318.931 83.1601 327.624C81.4461 336.317 75.5694 331.175 74.4675 321.135C73.3657 311.096 63.6937 285.263 56.3478 282.814C49.002 280.243 32.9636 283.427 33.3309 286.61C33.6982 289.793 46.5534 296.772 53.2871 303.995C59.8983 311.218 63.6937 320.156 54.8787 321.502C45.9412 322.849 39.6973 295.547 35.2898 291.262C30.8823 287.1 12.6402 291.507 9.5794 293.711C6.51864 295.915 -2.90851 332.032 0.886835 338.52C10.314 346.111 39.6973 348.315 44.8394 345.376ZM114.992 384.187C122.95 390.064 117.196 397.287 117.196 397.287C111.931 402.796 104.218 396.43 98.9536 387.493C93.8116 378.678 107.156 378.433 114.992 384.187ZM92.22 365.7C100.056 367.169 92.9545 374.76 92.9545 374.76C84.3844 373.78 84.3844 364.231 92.22 365.7Z" fill="#62D63A"/>
<path d="M305.862 0H148.416C133.724 0 121.726 11.9982 121.726 26.6898V378.188C121.726 392.39 132.867 404.021 146.824 404.878H235.586H305.862C320.553 404.878 332.551 392.879 332.551 378.188V26.8123C332.551 11.9982 320.553 0 305.862 0Z" fill="#4E5258"/>
<path d="M305.861 5.99902H280.273L275.621 14.2019C273.172 18.4869 268.52 21.1804 263.623 21.1804H244.034H210.243H190.654C185.635 21.1804 181.105 18.4869 178.656 14.2019L174.004 5.99902H148.416C136.907 5.99902 127.603 15.3037 127.603 26.8122V378.31C127.603 389.819 136.907 399.123 148.416 399.123H305.861C317.37 399.123 326.674 389.819 326.674 378.31V26.8122C326.674 15.3037 317.37 5.99902 305.861 5.99902Z" fill="#1B2129"/>
<path d="M251.87 13.4671H202.898C201.796 13.4671 200.939 12.6101 200.939 11.5082C200.939 10.4063 201.796 9.54932 202.898 9.54932H251.87C252.972 9.54932 253.829 10.4063 253.829 11.5082C253.951 12.4876 252.972 13.4671 251.87 13.4671Z" fill="#E7E8FA"/>
<path d="M181.35 246.82H106.056C102.26 246.82 99.0771 243.759 99.0771 239.841V232.863C99.0771 229.067 102.138 225.884 106.056 225.884H181.35C185.146 225.884 188.329 228.945 188.329 232.863V239.841C188.329 243.759 185.268 246.82 181.35 246.82Z" fill="white"/>
<path d="M180.493 329.95H107.035C102.75 329.95 99.1992 326.399 99.1992 322.114V264.205C99.1992 259.92 102.75 256.369 107.035 256.369H180.493C184.778 256.369 188.329 259.92 188.329 264.205V322.114C188.329 326.522 184.778 329.95 180.493 329.95Z" fill="white"/>
<path d="M156.987 238.984H110.219C109.117 238.984 108.138 238.127 108.138 236.903C108.138 235.801 108.995 234.821 110.219 234.821H156.987C158.089 234.821 159.069 235.678 159.069 236.903C158.946 238.127 158.089 238.984 156.987 238.984Z" fill="#59CD57"/>
<path d="M156.987 276.203H110.219C109.117 276.203 108.138 275.346 108.138 274.122C108.138 273.02 108.995 272.041 110.219 272.041H156.987C158.089 272.041 159.069 272.898 159.069 274.122C158.946 275.224 158.089 276.203 156.987 276.203Z" fill="#59CD57"/>
<path d="M156.987 296.526H110.219C109.117 296.526 108.138 295.669 108.138 294.445C108.138 293.343 108.995 292.364 110.219 292.364H156.987C158.089 292.364 159.069 293.221 159.069 294.445C158.946 295.669 158.089 296.526 156.987 296.526Z" fill="#59CD57"/>
<path d="M156.987 316.972H110.219C109.117 316.972 108.138 316.115 108.138 314.891C108.138 313.789 108.995 312.81 110.219 312.81H156.987C158.089 312.81 159.069 313.667 159.069 314.891C158.946 316.115 158.089 316.972 156.987 316.972Z" fill="#59CD57"/>
<path d="M176.454 286.242H110.219C109.117 286.242 108.138 285.385 108.138 284.161C108.138 283.059 108.995 282.08 110.219 282.08H176.454C177.556 282.08 178.535 282.937 178.535 284.161C178.535 285.263 177.556 286.242 176.454 286.242Z" fill="#59CD57"/>
<path d="M178.535 238.984H166.292C165.19 238.984 164.21 238.127 164.21 236.903C164.21 235.801 165.067 234.821 166.292 234.821H178.535C179.637 234.821 180.616 235.678 180.616 236.903C180.494 238.127 179.637 238.984 178.535 238.984Z" fill="#59CD57"/>
<path d="M172.903 317.462L168.006 320.033C167.517 320.278 167.027 319.911 167.149 319.421L168.129 314.034C168.129 313.789 168.129 313.667 168.006 313.544L164.088 309.749C163.721 309.382 163.966 308.769 164.456 308.647L169.843 307.912C170.088 307.912 170.21 307.79 170.332 307.545L172.781 302.648C173.026 302.158 173.638 302.158 173.883 302.648L176.332 307.545C176.454 307.668 176.576 307.912 176.821 307.912L182.208 308.647C182.698 308.769 182.943 309.382 182.575 309.749L178.658 313.544C178.535 313.667 178.413 313.912 178.535 314.034L179.515 319.421C179.637 319.911 179.025 320.278 178.658 320.033L173.76 317.462C173.271 317.34 173.148 317.34 172.903 317.462Z" fill="url(#paint0_linear_51_14831)"/>
<path opacity="0.08" d="M296.434 294.568H223.221C215.508 294.568 209.386 288.324 209.386 280.733V63.9086C209.386 56.1955 215.63 50.074 223.221 50.074H296.434C304.147 50.074 310.269 56.3179 310.269 63.9086V280.733C310.391 288.446 304.147 294.568 296.434 294.568Z" fill="white"/>
<path d="M360.297 331.098C379.039 312.356 379.039 281.969 360.297 263.227C341.555 244.485 311.168 244.485 292.426 263.227C273.684 281.969 273.684 312.356 292.426 331.098C311.168 349.84 341.555 349.84 360.297 331.098Z" fill="#1B2129"/>
<path d="M326.552 237.148V297.261H266.438C266.561 330.195 293.373 356.885 326.307 356.885C359.363 356.885 386.175 330.073 386.175 297.017C386.298 264.083 359.608 237.271 326.552 237.148Z" fill="#14D68D"/>
<path d="M326.308 330.318C344.632 330.318 359.487 315.463 359.487 297.139C359.487 278.815 344.632 263.96 326.308 263.96C307.984 263.96 293.129 278.815 293.129 297.139C293.129 315.463 307.984 330.318 326.308 330.318Z" fill="#0A6B47"/>
<path d="M326.307 319.666C338.748 319.666 348.834 309.581 348.834 297.139C348.834 284.698 338.748 274.612 326.307 274.612C313.866 274.612 303.78 284.698 303.78 297.139C303.78 309.581 313.866 319.666 326.307 319.666Z" fill="#16EE9D"/>
<path d="M315.355 299.788L318.456 293.65V293.599H314.843V292.306H320.093V293.618L316.988 299.788H315.355ZM323.81 299.891C323.294 299.891 322.833 299.796 322.429 299.606C322.027 299.416 321.708 299.154 321.472 298.82C321.235 298.487 321.112 298.104 321.103 297.673H322.637C322.654 297.963 322.776 298.198 323.002 298.378C323.229 298.558 323.498 298.649 323.81 298.649C324.058 298.649 324.278 298.594 324.468 298.484C324.66 298.372 324.81 298.217 324.917 298.02C325.027 297.82 325.081 297.591 325.081 297.333C325.081 297.07 325.025 296.839 324.913 296.639C324.804 296.439 324.651 296.283 324.457 296.171C324.262 296.059 324.039 296.002 323.788 296C323.569 296 323.356 296.045 323.149 296.135C322.944 296.225 322.784 296.348 322.67 296.504L321.263 296.252L321.618 292.306H326.192V293.599H322.922L322.728 295.474H322.772C322.904 295.288 323.102 295.135 323.368 295.013C323.633 294.891 323.93 294.831 324.259 294.831C324.71 294.831 325.112 294.936 325.465 295.148C325.818 295.36 326.097 295.651 326.302 296.022C326.506 296.389 326.607 296.813 326.605 297.293C326.607 297.797 326.49 298.245 326.254 298.638C326.02 299.027 325.693 299.334 325.271 299.558C324.852 299.78 324.365 299.891 323.81 299.891ZM331.804 298.385V297.991C331.804 297.691 331.867 297.416 331.994 297.165C332.123 296.912 332.309 296.71 332.553 296.559C332.799 296.405 333.099 296.329 333.452 296.329C333.81 296.329 334.111 296.404 334.354 296.555C334.6 296.706 334.785 296.908 334.909 297.162C335.036 297.412 335.099 297.689 335.099 297.991V298.385C335.099 298.685 335.036 298.962 334.909 299.215C334.783 299.466 334.597 299.667 334.35 299.818C334.104 299.971 333.805 300.048 333.452 300.048C333.094 300.048 332.793 299.971 332.549 299.818C332.306 299.667 332.121 299.466 331.994 299.215C331.867 298.962 331.804 298.685 331.804 298.385ZM332.867 297.991V298.385C332.867 298.558 332.909 298.722 332.991 298.875C333.077 299.029 333.23 299.105 333.452 299.105C333.673 299.105 333.824 299.03 333.905 298.879C333.988 298.728 334.029 298.563 334.029 298.385V297.991C334.029 297.813 333.99 297.647 333.912 297.494C333.834 297.341 333.681 297.264 333.452 297.264C333.232 297.264 333.08 297.341 332.995 297.494C332.91 297.647 332.867 297.813 332.867 297.991ZM327.964 294.103V293.709C327.964 293.407 328.029 293.13 328.158 292.88C328.287 292.626 328.473 292.424 328.717 292.273C328.963 292.122 329.26 292.047 329.608 292.047C329.969 292.047 330.271 292.122 330.514 292.273C330.758 292.424 330.943 292.626 331.07 292.88C331.196 293.13 331.26 293.407 331.26 293.709V294.103C331.26 294.406 331.195 294.682 331.066 294.933C330.939 295.184 330.753 295.385 330.507 295.536C330.263 295.684 329.964 295.759 329.608 295.759C329.253 295.759 328.952 295.683 328.706 295.532C328.462 295.379 328.277 295.178 328.15 294.929C328.026 294.678 327.964 294.403 327.964 294.103ZM329.035 293.709V294.103C329.035 294.281 329.076 294.446 329.159 294.597C329.244 294.748 329.394 294.823 329.608 294.823C329.832 294.823 329.984 294.748 330.065 294.597C330.148 294.446 330.189 294.281 330.189 294.103V293.709C330.189 293.531 330.15 293.365 330.072 293.212C329.994 293.059 329.84 292.982 329.608 292.982C329.391 292.982 329.242 293.06 329.159 293.216C329.076 293.372 329.035 293.536 329.035 293.709ZM328.446 299.788L333.591 292.306H334.548L329.404 299.788H328.446Z" fill="white"/>
<path opacity="0.31" d="M332.552 89.6194H249.421C244.279 89.6194 239.994 93.782 239.994 99.0465V220.375C239.994 225.517 244.157 229.802 249.421 229.802H332.552V89.6194Z" fill="#35ADF4"/>
<path d="M358.63 220.62H257.624C252.482 220.62 248.197 216.457 248.197 211.193V89.8642C248.197 84.7221 252.36 80.437 257.624 80.437H358.63C363.772 80.437 368.057 84.5996 368.057 89.8642V211.193C368.057 216.335 363.772 220.62 358.63 220.62Z" fill="url(#paint1_linear_51_14831)"/>
<path d="M307.086 105.78V80.5596H257.624C252.482 80.5596 248.197 84.7222 248.197 89.9867V105.78H307.086Z" fill="#1FA3ED"/>
<path d="M269.39 95.8391H267.963L270.137 89.5431H271.852L274.023 95.8391H272.596L271.019 90.9818H270.97L269.39 95.8391ZM269.301 93.3644H272.67V94.4035H269.301V93.3644ZM274.78 95.8391V89.5431H277.264C277.742 89.5431 278.149 89.6343 278.485 89.8167C278.821 89.9971 279.077 90.2481 279.253 90.5699C279.432 90.8896 279.521 91.2585 279.521 91.6766C279.521 92.0947 279.431 92.4636 279.25 92.7833C279.07 93.1031 278.809 93.3521 278.466 93.5304C278.126 93.7087 277.714 93.7978 277.231 93.7978H275.647V92.7311H277.015C277.272 92.7311 277.483 92.687 277.649 92.5989C277.817 92.5087 277.942 92.3847 278.024 92.2269C278.108 92.067 278.15 91.8836 278.15 91.6766C278.15 91.4676 278.108 91.2852 278.024 91.1294C277.942 90.9716 277.817 90.8497 277.649 90.7636C277.481 90.6754 277.267 90.6314 277.009 90.6314H276.112V95.8391H274.78ZM280.385 95.8391V89.5431H282.869C283.345 89.5431 283.751 89.6282 284.087 89.7983C284.425 89.9663 284.682 90.2051 284.858 90.5146C285.037 90.822 285.126 91.1837 285.126 91.5998C285.126 92.0179 285.036 92.3775 284.855 92.6788C284.675 92.978 284.414 93.2076 284.071 93.3674C283.731 93.5273 283.319 93.6072 282.836 93.6072H281.172V92.5374H282.62C282.875 92.5374 283.086 92.5026 283.254 92.4329C283.422 92.3632 283.547 92.2587 283.629 92.1193C283.713 91.9799 283.755 91.8068 283.755 91.5998C283.755 91.3907 283.713 91.2145 283.629 91.071C283.547 90.9275 283.421 90.8189 283.251 90.7451C283.083 90.6693 282.87 90.6314 282.614 90.6314H281.717V95.8391H280.385ZM283.786 92.9739L285.35 95.8391H283.881L282.35 92.9739H283.786Z" fill="white"/>
<path d="M328.547 90.704H330.189L331.923 94.9341H331.996L333.73 90.704H335.372V97H334.081V92.9021H334.029L332.399 96.9693H331.52L329.891 92.8867H329.838V97H328.547V90.704ZM337.554 97H336.127L338.301 90.704H340.016L342.187 97H340.76L339.183 92.1427H339.134L337.554 97ZM337.465 94.5253H340.834V95.5643H337.465V94.5253ZM341.933 90.704H343.424L344.86 93.4155H344.921L346.357 90.704H347.848L345.551 94.7743V97H344.23V94.7743L341.933 90.704Z" fill="#93A5C9"/>
<path d="M274.764 138.469H261.787C260.195 138.469 258.971 137.245 258.971 135.653V122.676C258.971 121.084 260.195 119.86 261.787 119.86H274.764C276.356 119.86 277.58 121.084 277.58 122.676V135.653C277.58 137.123 276.356 138.469 274.764 138.469Z" fill="#1FA3ED"/>
<path d="M301.209 138.469H288.231C286.639 138.469 285.415 137.245 285.415 135.653V122.676C285.415 121.084 286.639 119.86 288.231 119.86H301.209C302.8 119.86 304.024 121.084 304.024 122.676V135.653C304.024 137.123 302.678 138.469 301.209 138.469Z" fill="#1FA3ED"/>
<path d="M327.531 138.469H314.554C312.962 138.469 311.738 137.245 311.738 135.653V122.676C311.738 121.084 312.962 119.86 314.554 119.86H327.531C329.123 119.86 330.347 121.084 330.347 122.676V135.653C330.347 137.123 329.123 138.469 327.531 138.469Z" fill="#1FA3ED"/>
<path d="M353.854 138.469H340.876C339.285 138.469 338.061 137.245 338.061 135.653V122.676C338.061 121.084 339.285 119.86 340.876 119.86H353.854C355.446 119.86 356.67 121.084 356.67 122.676V135.653C356.67 137.123 355.446 138.469 353.854 138.469Z" fill="#1FA3ED"/>
<path d="M274.764 167.363H261.787C260.195 167.363 258.971 166.138 258.971 164.547V151.569C258.971 149.977 260.195 148.753 261.787 148.753H274.764C276.356 148.753 277.58 149.977 277.58 151.569V164.547C277.58 166.138 276.356 167.363 274.764 167.363Z" fill="#1FA3ED"/>
<path d="M301.209 167.363H288.231C286.639 167.363 285.415 166.138 285.415 164.547V151.569C285.415 149.977 286.639 148.753 288.231 148.753H301.209C302.8 148.753 304.024 149.977 304.024 151.569V164.547C304.024 166.138 302.678 167.363 301.209 167.363Z" fill="#1FA3ED"/>
<path d="M327.531 167.363H314.554C312.962 167.363 311.738 166.138 311.738 164.547V151.569C311.738 149.977 312.962 148.753 314.554 148.753H327.531C329.123 148.753 330.347 149.977 330.347 151.569V164.547C330.347 166.138 329.123 167.363 327.531 167.363Z" fill="#D71FD7"/>
<path d="M353.854 167.363H340.876C339.285 167.363 338.061 166.138 338.061 164.547V151.569C338.061 149.977 339.285 148.753 340.876 148.753H353.854C355.446 148.753 356.67 149.977 356.67 151.569V164.547C356.67 166.138 355.446 167.363 353.854 167.363Z" fill="#1FA3ED"/>
<path d="M274.764 196.378H261.787C260.195 196.378 258.971 195.154 258.971 193.563V180.585C258.971 178.993 260.195 177.769 261.787 177.769H274.764C276.356 177.769 277.58 178.993 277.58 180.585V193.563C277.58 195.032 276.356 196.378 274.764 196.378Z" fill="#1FA3ED"/>
<path d="M301.209 196.378H288.231C286.639 196.378 285.415 195.154 285.415 193.563V180.585C285.415 178.993 286.639 177.769 288.231 177.769H301.209C302.8 177.769 304.024 178.993 304.024 180.585V193.563C304.024 195.032 302.678 196.378 301.209 196.378Z" fill="#1FA3ED"/>
<path d="M327.531 196.378H314.554C312.962 196.378 311.738 195.154 311.738 193.563V180.585C311.738 178.993 312.962 177.769 314.554 177.769H327.531C329.123 177.769 330.347 178.993 330.347 180.585V193.563C330.347 195.032 329.123 196.378 327.531 196.378Z" fill="#1FA3ED"/>
<path d="M353.854 196.378H340.876C339.285 196.378 338.061 195.154 338.061 193.563V180.585C338.061 178.993 339.285 177.769 340.876 177.769H353.854C355.446 177.769 356.67 178.993 356.67 180.585V193.563C356.67 195.032 355.446 196.378 353.854 196.378Z" fill="#1FA3ED"/>
<g opacity="0.08">
<path d="M193.837 66.3576H143.396C141.192 66.3576 139.355 64.5211 139.355 62.3173V55.5837C139.355 53.3799 141.192 51.5435 143.396 51.5435H193.837C196.041 51.5435 197.877 53.3799 197.877 55.5837V62.3173C198 64.5211 196.163 66.3576 193.837 66.3576Z" fill="white"/>
<path d="M193.837 88.64H143.396C141.192 88.64 139.355 86.8035 139.355 84.5998V77.8661C139.355 75.6624 141.192 73.8259 143.396 73.8259H193.837C196.041 73.8259 197.877 75.6624 197.877 77.8661V84.5998C198 86.8035 196.163 88.64 193.837 88.64Z" fill="white"/>
</g>
<path opacity="0.31" d="M144.498 83.2527C136.54 83.2527 128.827 84.5994 121.726 87.1705V214.865C128.827 217.436 136.54 218.783 144.498 218.783C181.962 218.783 212.325 188.42 212.325 150.957C212.325 113.493 181.962 83.2527 144.498 83.2527Z" fill="#323197"/>
<path d="M144.498 214.498C179.523 214.498 207.917 186.105 207.917 151.079C207.917 116.054 179.523 87.6604 144.498 87.6604C109.473 87.6604 81.0791 116.054 81.0791 151.079C81.0791 186.105 109.473 214.498 144.498 214.498Z" fill="url(#paint2_linear_51_14831)"/>
<path d="M144.498 214.498C179.523 214.498 207.917 186.105 207.917 151.079C207.917 116.054 179.523 87.6604 144.498 87.6604C109.473 87.6604 81.0791 116.054 81.0791 151.079C81.0791 186.105 109.473 214.498 144.498 214.498Z" fill="black" fill-opacity="0.2"/>
<path d="M144.498 208.255C176.075 208.255 201.673 182.657 201.673 151.08C201.673 119.503 176.075 93.9048 144.498 93.9048C112.921 93.9048 87.3232 119.503 87.3232 151.08C87.3232 182.657 112.921 208.255 144.498 208.255Z" fill="white"/>
<mask id="mask0_51_14831" style="mask-type:luminance" maskUnits="userSpaceOnUse" x="87" y="93" width="115" height="116">
<path d="M144.499 208.255C176.076 208.255 201.674 182.657 201.674 151.08C201.674 119.503 176.076 93.905 144.499 93.905C112.922 93.905 87.3242 119.503 87.3242 151.08C87.3242 182.657 112.922 208.255 144.499 208.255Z" fill="white"/>
</mask>
<g mask="url(#mask0_51_14831)">
<path d="M152.458 150.222C152.458 150.222 147.805 162.588 150.866 170.668C151.968 178.381 130.053 172.627 126.502 162.955C127.604 156.834 131.889 152.549 132.257 140.183C132.746 127.818 152.825 142.142 152.458 150.222Z" fill="url(#paint3_linear_51_14831)"/>
<path opacity="0.32" d="M131.155 149.365C131.522 147.896 131.767 146.304 132.012 144.346L144.255 138.591C148.662 141.775 152.58 146.549 152.335 150.222C152.335 150.222 150.254 155.976 149.764 162.098C138.501 159.894 133.359 153.528 131.155 149.365Z" fill="#FFA26E"/>
<path d="M161.762 131.246C161.762 131.246 167.149 146.55 161.885 152.671C153.682 162.343 140.949 157.079 135.807 151.202C130.665 145.325 130.91 121.206 139.48 117.411C148.173 113.616 158.212 116.309 161.762 131.246Z" fill="url(#paint4_linear_51_14831)"/>
<path opacity="0.32" d="M134.093 125.247C134.216 124.757 134.461 124.267 134.583 123.778L139.235 118.88L153.682 118.023C155.763 119.37 157.6 121.329 159.192 124.145C156.008 125.369 150.009 127.083 145.234 126.471C140.46 125.981 141.072 126.471 141.072 126.471C141.072 126.471 143.031 131.001 140.46 135.653C137.766 140.306 135.073 142.632 136.419 146.427C135.195 144.346 134.338 129.042 134.093 125.247Z" fill="#FFA26E"/>
<path d="M138.378 124.879C138.378 124.879 141.439 129.654 136.787 138.347C136.787 138.347 135.317 142.509 136.787 146.427C137.031 148.386 132.624 144.346 131.889 142.509C131.277 141.163 127.115 143.122 125.89 141.285C124.666 139.449 126.87 137.49 126.87 137.49C126.87 137.49 120.871 131.246 121.483 126.104C122.095 120.962 128.094 121.451 128.094 121.451C128.094 121.451 124.788 119.86 123.931 118.146C123.319 116.554 128.339 119.492 128.829 120.594C128.829 120.594 128.339 118.758 129.686 117.289C130.543 116.187 129.931 120.594 129.931 120.594C129.931 120.594 130.788 117.901 133.726 114.595C136.664 111.29 141.684 113.493 145.724 111.045C149.764 108.596 149.03 103.944 151.723 103.699C154.417 103.454 160.171 107.862 158.947 115.82C158.947 115.82 159.926 112.636 159.559 108.106C160.538 107.617 163.232 115.085 158.579 118.635C158.579 118.635 161.273 118.023 162.742 114.105C163.966 111.412 165.558 120.105 156.253 122.92C146.948 125.859 141.072 122.798 138.378 124.879Z" fill="#353131"/>
<path d="M133.114 143.856C133.114 143.856 128.952 137.857 126.503 141.163C124.054 144.468 134.094 150.467 134.339 147.651C134.584 145.325 133.114 143.856 133.114 143.856Z" fill="url(#paint5_linear_51_14831)"/>
<path d="M132.136 146.06C132.136 146.06 130.054 142.265 127.361 142.265C126.626 141.652 128.83 141.897 129.932 142.754C131.156 143.611 132.993 145.203 132.136 146.06Z" fill="#FF7D5A"/>
<path d="M132.258 145.325C132.258 145.325 129.809 142.877 128.463 143.734C127.851 144.713 132.748 147.162 132.258 145.325Z" fill="#FF7D5A"/>
<path d="M173.148 285.753C172.413 280.489 170.944 207.887 170.944 198.093C170.944 187.319 166.537 180.708 166.537 180.708C164.088 176.545 156.62 172.505 154.171 171.036C151.723 169.444 150.253 167.73 150.253 167.73C150.253 167.73 150.743 170.424 147.438 172.75C135.317 174.097 127.359 161.241 127.359 161.241C127.359 161.241 108.627 169.567 105.322 178.871C99.2 196.501 97.8533 279.509 97.6084 285.631H173.148V285.753Z" fill="#1FA3ED"/>
</g>
<path d="M192.49 136.633C201.483 136.633 208.773 129.342 208.773 120.349C208.773 111.356 201.483 104.066 192.49 104.066C183.497 104.066 176.207 111.356 176.207 120.349C176.207 129.342 183.497 136.633 192.49 136.633Z" fill="#62D63A"/>
<path d="M185.123 120.595L190.265 125.737L200.06 115.942" stroke="white" stroke-width="2" stroke-miterlimit="10" stroke-linecap="round" stroke-linejoin="round"/>
<path opacity="0.31" d="M226.781 347H126V375H226.781C229.677 375 231.994 373 231.994 370.5V351.5C232.138 349 229.822 347 226.781 347Z" fill="#323197"/>
<path d="M220.758 369H103.242C100.33 369 98 367.071 98 364.661V346.339C98 343.928 100.33 342 103.242 342H220.758C223.67 342 226 343.928 226 346.339V364.661C226 367.071 223.67 369 220.758 369Z" fill="white"/>
<path d="M213.182 338.52C213.182 340.112 211.835 341.459 210.243 341.459C208.652 341.459 207.305 340.112 207.305 338.52C207.305 336.929 208.652 335.582 210.243 335.582C211.835 335.582 213.182 336.929 213.182 338.52Z" fill="white"/>
<path opacity="0.44" d="M290.435 248.289H236.198C233.995 248.289 232.158 246.453 232.158 244.249C232.158 242.045 233.995 240.209 236.198 240.209H290.435C292.639 240.209 294.475 242.045 294.475 244.249C294.475 246.453 292.639 248.289 290.435 248.289Z" stroke="white" stroke-miterlimit="10"/>
<path opacity="0.44" d="M252.482 261.267H236.198C233.995 261.267 232.158 259.43 232.158 257.227C232.158 255.023 233.995 253.187 236.198 253.187H252.482C254.685 253.187 256.522 255.023 256.522 257.227C256.644 259.43 254.808 261.267 252.482 261.267Z" stroke="white" stroke-miterlimit="10"/>
<defs>
<linearGradient id="paint0_linear_51_14831" x1="163.809" y1="311.051" x2="182.62" y2="311.051" gradientUnits="userSpaceOnUse">
<stop stop-color="#FF8D02"/>
<stop offset="1" stop-color="#FFC757"/>
</linearGradient>
<linearGradient id="paint1_linear_51_14831" x1="263.739" y1="230.933" x2="332.054" y2="107.174" gradientUnits="userSpaceOnUse">
<stop stop-color="#D8E2F6"/>
<stop offset="0.00971049" stop-color="#DAE3F6"/>
<stop offset="0.1219" stop-color="#EBF0FA"/>
<stop offset="0.2609" stop-color="#F6F9FD"/>
<stop offset="0.4566" stop-color="#FDFEFF"/>
<stop offset="1" stop-color="white"/>
</linearGradient>
<linearGradient id="paint2_linear_51_14831" x1="81.0791" y1="87.6604" x2="203.464" y2="214.498" gradientUnits="userSpaceOnUse">
<stop stop-color="#16EE9D"/>
<stop offset="1" stop-color="#08A0F3"/>
</linearGradient>
<linearGradient id="paint3_linear_51_14831" x1="133.891" y1="169.605" x2="143.937" y2="151.059" gradientUnits="userSpaceOnUse">
<stop stop-color="#FFB58E"/>
<stop offset="0.3282" stop-color="#FEB38B"/>
<stop offset="0.5908" stop-color="#FCAD81"/>
<stop offset="0.8298" stop-color="#F9A370"/>
<stop offset="1" stop-color="#F5985F"/>
</linearGradient>
<linearGradient id="paint4_linear_51_14831" x1="151.824" y1="121.964" x2="144.99" y2="157.134" gradientUnits="userSpaceOnUse">
<stop stop-color="#FFB58E"/>
<stop offset="0.3282" stop-color="#FEB38B"/>
<stop offset="0.5908" stop-color="#FCAD81"/>
<stop offset="0.8298" stop-color="#F9A370"/>
<stop offset="1" stop-color="#F5985F"/>
</linearGradient>
<linearGradient id="paint5_linear_51_14831" x1="134.396" y1="123.517" x2="129.091" y2="150.818" gradientUnits="userSpaceOnUse">
<stop stop-color="#FFB58E"/>
<stop offset="0.3282" stop-color="#FEB38B"/>
<stop offset="0.5908" stop-color="#FCAD81"/>
<stop offset="0.8298" stop-color="#F9A370"/>
<stop offset="1" stop-color="#F5985F"/>
</linearGradient>
</defs>
</svg>
