<svg width="48" height="48" viewBox="0 0 48 48" fill="none" xmlns="http://www.w3.org/2000/svg">
<circle cx="24" cy="24" r="24" fill="#35ADF4"/>
<path d="M27.4011 22.6269C29.1066 23.0309 30.4867 23.8275 31.5414 25.0168C32.6185 26.1837 33.1571 27.6536 33.1571 29.4264C33.1571 31.7826 32.3604 33.6339 30.7672 34.9804C29.1739 36.3268 27.2216 37 24.9102 37C23.115 37 21.4993 36.5849 20.0631 35.7546C18.6494 34.9243 17.6283 33.7125 17 32.1192L20.2987 30.2006C20.9944 32.2202 22.5316 33.23 24.9102 33.23C26.2567 33.23 27.3226 32.8934 28.108 32.2202C28.8934 31.5245 29.2861 30.5933 29.2861 29.4264C29.2861 28.2595 28.8934 27.3394 28.108 26.6662C27.3226 25.993 26.2567 25.6564 24.9102 25.6564H24.0351L22.4867 23.3338L27.5694 16.6353H17.7069V13H32.1809V16.2987L27.4011 22.6269Z" fill="white"/>
</svg>
