<svg width="40" height="40" viewBox="0 0 40 40" fill="none" xmlns="http://www.w3.org/2000/svg">
<circle cx="20" cy="20" r="20" fill="#35ADF4"/>
<path d="M19.8724 17.4053C21.7424 17.4053 23.3226 17.9663 24.6129 19.0884C25.9032 20.1917 26.5484 21.7251 26.5484 23.6886C26.5484 25.6522 25.8845 27.195 24.5568 28.317C23.2291 29.439 21.6021 30 19.676 30C18.1239 30 16.7494 29.6447 15.5526 28.9341C14.3558 28.2048 13.5049 27.1576 13 25.7924L15.777 24.1935C16.3006 25.9701 17.6003 26.8583 19.676 26.8583C20.7793 26.8583 21.6583 26.5778 22.3128 26.0168C22.986 25.4371 23.3226 24.6611 23.3226 23.6886C23.3226 22.7162 22.9953 21.9495 22.3408 21.3885C21.6863 20.8275 20.8167 20.547 19.7321 20.547H14.0098L14.7672 10H25.7069V13.0295H17.7405L17.4039 17.4053H19.8724Z" fill="white"/>
</svg>
