<svg width="40" height="40" viewBox="0 0 40 40" fill="none" xmlns="http://www.w3.org/2000/svg">
<circle opacity="0.1" cx="20" cy="20" r="20" fill="#35ADF4"/>
<path d="M19.9987 25.8335C20.3293 25.8335 20.6063 25.7217 20.8299 25.4981C21.0536 25.2745 21.1654 24.9974 21.1654 24.6668V20.0002C21.1654 19.6696 21.0536 19.3925 20.8299 19.1689C20.6063 18.9453 20.3293 18.8335 19.9987 18.8335C19.6681 18.8335 19.3911 18.9453 19.1674 19.1689C18.9438 19.3925 18.832 19.6696 18.832 20.0002V24.6668C18.832 24.9974 18.9438 25.2745 19.1674 25.4981C19.3911 25.7217 19.6681 25.8335 19.9987 25.8335ZM19.9987 16.5002C20.3293 16.5002 20.6063 16.3884 20.8299 16.1647C21.0536 15.9411 21.1654 15.6641 21.1654 15.3335C21.1654 15.0029 21.0536 14.7259 20.8299 14.5022C20.6063 14.2786 20.3293 14.1668 19.9987 14.1668C19.6681 14.1668 19.3911 14.2786 19.1674 14.5022C18.9438 14.7259 18.832 15.0029 18.832 15.3335C18.832 15.6641 18.9438 15.9411 19.1674 16.1647C19.3911 16.3884 19.6681 16.5002 19.9987 16.5002ZM19.9987 31.6668C18.3848 31.6668 16.8681 31.3606 15.4487 30.7481C14.0293 30.1356 12.7945 29.3043 11.7445 28.2543C10.6945 27.2043 9.86328 25.9696 9.25078 24.5502C8.63828 23.1307 8.33203 21.6141 8.33203 20.0002C8.33203 18.3863 8.63828 16.8696 9.25078 15.4502C9.86328 14.0307 10.6945 12.796 11.7445 11.746C12.7945 10.696 14.0293 9.86475 15.4487 9.25225C16.8681 8.63975 18.3848 8.3335 19.9987 8.3335C21.6126 8.3335 23.1293 8.63975 24.5487 9.25225C25.9681 9.86475 27.2029 10.696 28.2529 11.746C29.3029 12.796 30.1341 14.0307 30.7466 15.4502C31.3591 16.8696 31.6654 18.3863 31.6654 20.0002C31.6654 21.6141 31.3591 23.1307 30.7466 24.5502C30.1341 25.9696 29.3029 27.2043 28.2529 28.2543C27.2029 29.3043 25.9681 30.1356 24.5487 30.7481C23.1293 31.3606 21.6126 31.6668 19.9987 31.6668Z" fill="#1FA3ED"/>
</svg>
