<svg xmlns="http://www.w3.org/2000/svg" width="40" height="40" viewBox="0 0 40 40">
  <circle cx="20" cy="20" r="20" fill="#35ADF4" opacity="0.1" />
    <svg xmlns="http://www.w3.org/2000/svg" height="24" viewBox="0 -960 960 960" width="24"  x="8" y="8"><path d="M280-76.413q-33 0-56.5-23.5t-23.5-56.5q0-33 23.5-56.5t56.5-23.5q33 0 56.5 23.5t23.5 56.5q0 33-23.5 56.5t-56.5 23.5Zm400 0q-33 0-56.5-23.5t-23.5-56.5q0-33 23.5-56.5t56.5-23.5q33 0 56.5 23.5t23.5 56.5q0 33-23.5 56.5t-56.5 23.5ZM210.152-803.587h580.913q27.213 0 41.411 24.087t1.046 48.913l-136.5 246.674q-11.478 20.717-30.803 32.315Q646.894-440 623.913-440H328.065l-41.847 76.413h477.369v87.174H280q-47.63 0-71.587-41.413t-1.761-82.087L259.935-496 117.848-796.413H36.413v-87.174h135.739l38 80Z" fill="#35ADF4"/></svg>
</svg>