<svg width="60" height="60" viewBox="0 0 60 60" fill="none" xmlns="http://www.w3.org/2000/svg">
<path d="M39.875 30.75L29.25 20.125C29 19.875 28.8229 19.6042 28.7188 19.3125C28.6146 19.0208 28.5625 18.7083 28.5625 18.375C28.5625 18.0417 28.6146 17.7292 28.7188 17.4375C28.8229 17.1458 29 16.875 29.25 16.625L39.875 6C40.125 5.75 40.3958 5.57292 40.6875 5.46875C40.9792 5.36458 41.2917 5.3125 41.625 5.3125C41.9583 5.3125 42.2708 5.36458 42.5625 5.46875C42.8542 5.57292 43.125 5.75 43.375 6L54 16.625C54.25 16.875 54.4271 17.1458 54.5312 17.4375C54.6354 17.7292 54.6875 18.0417 54.6875 18.375C54.6875 18.7083 54.6354 19.0208 54.5312 19.3125C54.4271 19.6042 54.25 19.875 54 20.125L43.375 30.75C43.125 31 42.8542 31.1771 42.5625 31.2812C42.2708 31.3854 41.9583 31.4375 41.625 31.4375C41.2917 31.4375 40.9792 31.3854 40.6875 31.2812C40.3958 31.1771 40.125 31 39.875 30.75ZM7.5 25V10C7.5 9.29167 7.73958 8.69792 8.21875 8.21875C8.69792 7.73958 9.29167 7.5 10 7.5H25C25.7083 7.5 26.3021 7.73958 26.7812 8.21875C27.2604 8.69792 27.5 9.29167 27.5 10V25C27.5 25.7083 27.2604 26.3021 26.7812 26.7812C26.3021 27.2604 25.7083 27.5 25 27.5H10C9.29167 27.5 8.69792 27.2604 8.21875 26.7812C7.73958 26.3021 7.5 25.7083 7.5 25ZM32.5 50V35C32.5 34.2917 32.7396 33.6979 33.2188 33.2188C33.6979 32.7396 34.2917 32.5 35 32.5H50C50.7083 32.5 51.3021 32.7396 51.7812 33.2188C52.2604 33.6979 52.5 34.2917 52.5 35V50C52.5 50.7083 52.2604 51.3021 51.7812 51.7812C51.3021 52.2604 50.7083 52.5 50 52.5H35C34.2917 52.5 33.6979 52.2604 33.2188 51.7812C32.7396 51.3021 32.5 50.7083 32.5 50ZM7.5 50V35C7.5 34.2917 7.73958 33.6979 8.21875 33.2188C8.69792 32.7396 9.29167 32.5 10 32.5H25C25.7083 32.5 26.3021 32.7396 26.7812 33.2188C27.2604 33.6979 27.5 34.2917 27.5 35V50C27.5 50.7083 27.2604 51.3021 26.7812 51.7812C26.3021 52.2604 25.7083 52.5 25 52.5H10C9.29167 52.5 8.69792 52.2604 8.21875 51.7812C7.73958 51.3021 7.5 50.7083 7.5 50Z" fill="#16EE9D"/>
</svg>
