<svg width="60" height="60" viewBox="0 0 60 60" fill="none" xmlns="http://www.w3.org/2000/svg">
<path d="M30 33.75L35.3125 37.8125C35.5625 38.0208 35.8125 38.0312 36.0625 37.8438C36.3125 37.6562 36.3958 37.4167 36.3125 37.125L34.25 30.5L39.8125 26.125C40.0208 25.9167 40.0833 25.6771 40 25.4062C39.9167 25.1354 39.7292 25 39.4375 25H32.75L30.625 18.3125C30.5417 18.0208 30.3333 17.875 30 17.875C29.6667 17.875 29.4583 18.0208 29.375 18.3125L27.25 25H20.5625C20.2708 25 20.0729 25.1354 19.9688 25.4062C19.8646 25.6771 19.9167 25.9167 20.125 26.125L25.625 30.5L23.5625 37.1875C23.4792 37.4792 23.5625 37.7188 23.8125 37.9062C24.0625 38.0938 24.3125 38.0833 24.5625 37.875L30 33.75ZM30 54.75C29.7083 54.75 29.4375 54.7292 29.1875 54.6875C28.9375 54.6458 28.6875 54.5833 28.4375 54.5C22.8125 52.625 18.3333 49.1562 15 44.0938C11.6667 39.0312 10 33.5833 10 27.75V15.9375C10 14.8958 10.3021 13.9583 10.9062 13.125C11.5104 12.2917 12.2917 11.6875 13.25 11.3125L28.25 5.6875C28.8333 5.47917 29.4167 5.375 30 5.375C30.5833 5.375 31.1667 5.47917 31.75 5.6875L46.75 11.3125C47.7083 11.6875 48.4896 12.2917 49.0938 13.125C49.6979 13.9583 50 14.8958 50 15.9375V27.75C50 33.5833 48.3333 39.0312 45 44.0938C41.6667 49.1562 37.1875 52.625 31.5625 54.5C31.3125 54.5833 31.0625 54.6458 30.8125 54.6875C30.5625 54.7292 30.2917 54.75 30 54.75Z" fill="#16EE9D"/>
</svg>
