<svg xmlns="http://www.w3.org/2000/svg" width="24" height="24" viewBox="0 0 24 24" fill="none">
  <path d="M22.1458 3.1448C21.7858 2.83952 21.2203 2.79584 20.6357 3.03056H20.6347C20.0199 3.27728 3.22946 10.4792 2.54594 10.7734C2.42162 10.8166 1.33586 11.2218 1.4477 12.1242C1.54754 12.9378 2.42018 13.2747 2.52674 13.3136L6.79538 14.7752C7.07858 15.7179 8.12258 19.196 8.35346 19.939C8.49746 20.4022 8.73218 21.0109 9.14354 21.1362C9.5045 21.2754 9.86354 21.1482 10.0959 20.9658L12.7056 18.5451L16.9186 21.8307L17.0189 21.8907C17.305 22.0174 17.5791 22.0808 17.8407 22.0808C18.0427 22.0808 18.2367 22.0429 18.4219 21.967C19.0531 21.7078 19.3056 21.1064 19.332 21.0382L22.4789 4.68128C22.6709 3.80768 22.404 3.3632 22.1458 3.1448ZM10.56 15.3598L9.12002 19.1998L7.68002 14.3998L18.72 6.23984L10.56 15.3598Z" fill="white"/>
</svg>