<svg width="60" height="60" viewBox="0 0 60 60" fill="none" xmlns="http://www.w3.org/2000/svg">
<circle opacity="0.15" cx="30" cy="30" r="30" fill="#35ADF4"/>
<path opacity="0.3" d="M36.48 21.2251H20.565C17.4915 21.2251 15 23.7166 15 26.7901V38.1601C15 41.2336 17.4915 43.7251 20.565 43.7251H36.48C39.5535 43.7251 42.045 41.2336 42.045 38.1601V26.7901C42.045 23.7166 39.5535 21.2251 36.48 21.2251Z" fill="#35ADF4"/>
<path d="M40.41 35.55H43.605C43.975 35.55 44.3298 35.4031 44.5914 35.1414C44.853 34.8798 45 34.525 45 34.155V30.795C45 30.425 44.853 30.0702 44.5914 29.8086C44.3298 29.547 43.975 29.4 43.605 29.4H40.41C40.0096 29.3999 39.6133 29.4799 39.2444 29.6353C38.8754 29.7908 38.5413 30.0185 38.2617 30.3051C37.9821 30.5916 37.7627 30.9313 37.6165 31.3039C37.4702 31.6766 37.4 32.0748 37.41 32.475C37.4 32.8753 37.4702 33.2734 37.6165 33.6461C37.7627 34.0188 37.9821 34.3584 38.2617 34.645C38.5413 34.9316 38.8754 35.1593 39.2444 35.3147C39.6133 35.4701 40.0096 35.5501 40.41 35.55Z" fill="#35ADF4"/>
<path d="M15 26.7751C15.004 25.3017 15.592 23.8901 16.6352 22.8497C17.6785 21.8093 19.0917 21.225 20.565 21.2251H34.5C34.4725 19.9001 33.9257 18.6389 32.9775 17.7131C32.0292 16.7872 30.7553 16.2708 29.43 16.2751H20.085C19.4179 16.2731 18.757 16.4028 18.1402 16.6567C17.5233 16.9106 16.9627 17.2837 16.4903 17.7547C16.0179 18.2257 15.6431 18.7853 15.3874 19.4014C15.1316 20.0175 15 20.678 15 21.3451V26.7751Z" fill="#35ADF4"/>
<path d="M29.835 28.995H20.595C20.2966 28.995 20.0105 28.8765 19.7995 28.6655C19.5885 28.4545 19.47 28.1684 19.47 27.87C19.47 27.5716 19.5885 27.2855 19.7995 27.0745C20.0105 26.8635 20.2966 26.745 20.595 26.745H29.835C30.1334 26.745 30.4195 26.8635 30.6305 27.0745C30.8415 27.2855 30.96 27.5716 30.96 27.87C30.96 28.1684 30.8415 28.4545 30.6305 28.6655C30.4195 28.8765 30.1334 28.995 29.835 28.995Z" fill="#35ADF4"/>
</svg>
